<?xml version="1.0" encoding="UTF-8"?>
<svg id="Layer_1" xmlns="http://www.w3.org/2000/svg" version="1.1" viewBox="0 0 100 100">
  <!-- Generator: Adobe Illustrator 30.0.0, SVG Export Plug-In . SVG Version: 2.1.1 Build 123)  -->
  <defs>
    <style>
      .st0 {
        fill: #3a5a40;
      }
    </style>
  </defs>
  <path class="st0" d="M50,82.5c-2.84,0-5.44-1.61-6.71-4.15L18.29,28.35c-.93-1.85-1.01-3.9-.41-5.73.83-2.5,2.84-3.76,3.76-4.34,4.76-2.99,15.79-2.99,21.35,2.88,10.2,10.76-2.02,35.64,4.98,38.81,1.6.73,3.35-.08,3.45-.13,7.65-3.67-4.95-28.55,5.36-38.94,5.87-5.91,17.16-5.1,21.57-2.62.71.4,2.35,1.32,3.33,3.26,1.45,2.89.36,5.96.03,6.8-8.33,16.67-16.67,33.33-25,50-1.27,2.54-3.87,4.15-6.71,4.15Z"/>
  <path class="st0" d="M31.64,23.09"/>
</svg>